# xmcd
#
# Track frame offsets: 
#        17267
#        39852
#        58485
#        83757
#        99167
#        123667
#        142717
#        158597
#        178420
#        196672
#        218215
#
# Disc length: 3486 seconds
#
# Revision: 9
# Processed by: cddbd v1.5.2PL0 Copyright (c) Steve Scherf et al.
# Submitted via: ExactAudioCopy v1.1
#
DISCID=910cb80b
DTITLE=FFF - Le pire et le meilleur
DYEAR=1996
DGENRE=Rock
TTITLE0=On ne badine pas avec la mort
TTITLE1=Barbès
TTITLE2=Mauvais garçon
TTITLE3=Le pire et le meilleur
TTITLE4=Morphée
TTITLE5=Act up
TTITLE6=Le muscle magique
TTITLE7=Niggalize it
TTITLE8=Un jour
TTITLE9=Laisser aller
TTITLE10=Knock you down
EXTD=YEAR: 1996
EXTT0=
EXTT1=
EXTT2=
EXTT3=
EXTT4=
EXTT5=
EXTT6=
EXTT7=
EXTT8=
EXTT9=
EXTT10=
PLAYORDER=
